<mxfile host="app.diagrams.net" agent="Mozilla/5.0 (Windows NT 10.0; Win64; x64) AppleWebKit/537.36 (KHTML, like Gecko) Chrome/130.0.0.0 Safari/537.36" version="24.8.3">
  <diagram id="R2lEEEUBdFMjLlhIrx00" name="Page-1">
    <mxGraphModel dx="1750" dy="1970" grid="1" gridSize="10" guides="1" tooltips="1" connect="1" arrows="1" fold="1" page="1" pageScale="1" pageWidth="850" pageHeight="1100" math="0" shadow="0" extFonts="Permanent Marker^https://fonts.googleapis.com/css?family=Permanent+Marker">
      <root>
        <mxCell id="0" />
        <mxCell id="1" parent="0" />
        <mxCell id="QgSV-xS3C_OP-8Rsa7VE-4" value="Users" style="swimlane;childLayout=stackLayout;horizontal=1;startSize=50;horizontalStack=0;rounded=1;fontSize=14;fontStyle=0;strokeWidth=2;resizeParent=0;resizeLast=1;shadow=0;dashed=0;align=center;arcSize=4;whiteSpace=wrap;html=1;labelBackgroundColor=none;fillColor=#FAD9D5;strokeColor=#D0CEE2;fontColor=#1A1A1A;" vertex="1" parent="1">
          <mxGeometry x="50" y="80" width="230" height="180" as="geometry" />
        </mxCell>
        <mxCell id="QgSV-xS3C_OP-8Rsa7VE-5" value="&lt;div&gt;user_id: INT (PK)&lt;/div&gt;&lt;div&gt;username: VARCHAR(50)&lt;/div&gt;&lt;div&gt;email: VARCHAR(100)&lt;/div&gt;&lt;div&gt;password_hash: VARCHAR(255)&lt;/div&gt;&lt;div&gt;created_at: DATETIME&lt;/div&gt;&lt;div&gt;last_login: DATETIME&lt;/div&gt;&lt;div&gt;profile_picture: VARCHAR(255)&lt;/div&gt;&lt;div&gt;preferred_language: VARCHAR(10)&lt;/div&gt;" style="align=left;strokeColor=none;fillColor=none;spacingLeft=4;fontSize=12;verticalAlign=top;resizable=0;rotatable=0;part=1;html=1;labelBackgroundColor=none;fontColor=#1A1A1A;" vertex="1" parent="QgSV-xS3C_OP-8Rsa7VE-4">
          <mxGeometry y="50" width="230" height="130" as="geometry" />
        </mxCell>
        <mxCell id="QgSV-xS3C_OP-8Rsa7VE-9" value="Books" style="swimlane;childLayout=stackLayout;horizontal=1;startSize=50;horizontalStack=0;rounded=1;fontSize=14;fontStyle=0;strokeWidth=2;resizeParent=0;resizeLast=1;shadow=0;dashed=0;align=center;arcSize=4;whiteSpace=wrap;html=1;labelBackgroundColor=none;fillColor=#FAD9D5;strokeColor=#D0CEE2;fontColor=#1A1A1A;" vertex="1" parent="1">
          <mxGeometry x="570" y="330" width="280" height="190" as="geometry" />
        </mxCell>
        <mxCell id="QgSV-xS3C_OP-8Rsa7VE-10" value="&lt;div&gt;book_id: INT (PK)&lt;/div&gt;&lt;div&gt;title: VARCHAR(255)&lt;/div&gt;&lt;div&gt;author_id: INT (FK)&lt;/div&gt;&lt;div&gt;isbn: VARCHAR(13)&lt;/div&gt;&lt;div&gt;published_date: DATE&lt;/div&gt;&lt;div&gt;language: VARCHAR(50)&lt;/div&gt;&lt;div&gt;page_count: INT&lt;/div&gt;&lt;div&gt;description: TEXT&lt;/div&gt;&lt;div&gt;cover_image: VARCHAR(255)&lt;/div&gt;" style="align=left;strokeColor=none;fillColor=none;spacingLeft=4;fontSize=12;verticalAlign=top;resizable=0;rotatable=0;part=1;html=1;labelBackgroundColor=none;fontColor=#1A1A1A;" vertex="1" parent="QgSV-xS3C_OP-8Rsa7VE-9">
          <mxGeometry y="50" width="280" height="140" as="geometry" />
        </mxCell>
        <mxCell id="QgSV-xS3C_OP-8Rsa7VE-11" value="Authors" style="swimlane;childLayout=stackLayout;horizontal=1;startSize=50;horizontalStack=0;rounded=1;fontSize=14;fontStyle=0;strokeWidth=2;resizeParent=0;resizeLast=1;shadow=0;dashed=0;align=center;arcSize=4;whiteSpace=wrap;html=1;labelBackgroundColor=none;fillColor=#FAD9D5;strokeColor=#D0CEE2;fontColor=#1A1A1A;" vertex="1" parent="1">
          <mxGeometry x="300" y="550" width="180" height="130" as="geometry" />
        </mxCell>
        <mxCell id="QgSV-xS3C_OP-8Rsa7VE-12" value="&lt;div&gt;author_id: INT (PK)&lt;/div&gt;&lt;div&gt;first_name: VARCHAR(50)&lt;/div&gt;&lt;div&gt;last_name: VARCHAR(50)&lt;/div&gt;&lt;div&gt;biography: TEXT&lt;/div&gt;&lt;div&gt;birth_date: DATE&lt;/div&gt;" style="align=left;strokeColor=none;fillColor=none;spacingLeft=4;fontSize=12;verticalAlign=top;resizable=0;rotatable=0;part=1;html=1;labelBackgroundColor=none;fontColor=#1A1A1A;" vertex="1" parent="QgSV-xS3C_OP-8Rsa7VE-11">
          <mxGeometry y="50" width="180" height="80" as="geometry" />
        </mxCell>
        <mxCell id="QgSV-xS3C_OP-8Rsa7VE-13" value="Categories" style="swimlane;childLayout=stackLayout;horizontal=1;startSize=30;horizontalStack=0;rounded=1;fontSize=14;fontStyle=0;strokeWidth=2;resizeParent=0;resizeLast=1;shadow=0;dashed=0;align=center;arcSize=4;whiteSpace=wrap;html=1;labelBackgroundColor=none;fillColor=#FAD9D5;strokeColor=#D0CEE2;fontColor=#1A1A1A;" vertex="1" parent="1">
          <mxGeometry x="1050" y="190" width="140" height="110" as="geometry" />
        </mxCell>
        <mxCell id="QgSV-xS3C_OP-8Rsa7VE-47" value="" style="edgeStyle=entityRelationEdgeStyle;fontSize=12;html=1;endArrow=ERmany;startArrow=ERmany;rounded=0;exitX=1;exitY=0.25;exitDx=0;exitDy=0;entryX=0;entryY=0.5;entryDx=0;entryDy=0;labelBackgroundColor=none;strokeColor=#09555B;fontColor=default;" edge="1" parent="QgSV-xS3C_OP-8Rsa7VE-13" target="QgSV-xS3C_OP-8Rsa7VE-14">
          <mxGeometry width="100" height="100" relative="1" as="geometry">
            <mxPoint x="-170" y="-40" as="sourcePoint" />
            <mxPoint x="70" y="7.5" as="targetPoint" />
            <Array as="points">
              <mxPoint x="-170" y="-22.5" />
            </Array>
          </mxGeometry>
        </mxCell>
        <mxCell id="QgSV-xS3C_OP-8Rsa7VE-14" value="&lt;div&gt;category_id: INT (PK)&lt;/div&gt;&lt;div&gt;name: VARCHAR(50)&lt;/div&gt;&lt;div&gt;description: TEXT&lt;/div&gt;" style="align=left;strokeColor=none;fillColor=none;spacingLeft=4;fontSize=12;verticalAlign=top;resizable=0;rotatable=0;part=1;html=1;labelBackgroundColor=none;fontColor=#1A1A1A;" vertex="1" parent="QgSV-xS3C_OP-8Rsa7VE-13">
          <mxGeometry y="30" width="140" height="80" as="geometry" />
        </mxCell>
        <mxCell id="QgSV-xS3C_OP-8Rsa7VE-21" value="BooksCategories" style="swimlane;childLayout=stackLayout;horizontal=1;startSize=50;horizontalStack=0;rounded=1;fontSize=14;fontStyle=0;strokeWidth=2;resizeParent=0;resizeLast=1;shadow=0;dashed=0;align=center;arcSize=4;whiteSpace=wrap;html=1;labelBackgroundColor=none;fillColor=#FAD9D5;strokeColor=#D0CEE2;fontColor=#1A1A1A;" vertex="1" parent="1">
          <mxGeometry x="730" y="110" width="150" height="90" as="geometry" />
        </mxCell>
        <mxCell id="QgSV-xS3C_OP-8Rsa7VE-22" value="&lt;div&gt;book_id: INT (PK, FK)&lt;/div&gt;&lt;div&gt;category_id: INT (PK, FK)&lt;/div&gt;" style="align=left;strokeColor=none;fillColor=none;spacingLeft=4;fontSize=12;verticalAlign=top;resizable=0;rotatable=0;part=1;html=1;labelBackgroundColor=none;fontColor=#1A1A1A;" vertex="1" parent="QgSV-xS3C_OP-8Rsa7VE-21">
          <mxGeometry y="50" width="150" height="40" as="geometry" />
        </mxCell>
        <mxCell id="QgSV-xS3C_OP-8Rsa7VE-23" value="AudioBooks" style="swimlane;childLayout=stackLayout;horizontal=1;startSize=50;horizontalStack=0;rounded=1;fontSize=14;fontStyle=0;strokeWidth=2;resizeParent=0;resizeLast=1;shadow=0;dashed=0;align=center;arcSize=4;whiteSpace=wrap;html=1;labelBackgroundColor=none;fillColor=#FAD9D5;strokeColor=#D0CEE2;fontColor=#1A1A1A;" vertex="1" parent="1">
          <mxGeometry x="950" y="445" width="210" height="150" as="geometry" />
        </mxCell>
        <mxCell id="QgSV-xS3C_OP-8Rsa7VE-24" value="&lt;div&gt;audiobook_id: INT (PK)&lt;/div&gt;&lt;div&gt;book_id: INT (FK)&lt;/div&gt;&lt;div&gt;narrator_id: INT (FK)&lt;/div&gt;&lt;div&gt;duration_seconds: INT&lt;/div&gt;&lt;div&gt;file_format: VARCHAR(10)&lt;/div&gt;&lt;div&gt;file_size_mb: INT&lt;/div&gt;" style="align=left;strokeColor=none;fillColor=none;spacingLeft=4;fontSize=12;verticalAlign=top;resizable=0;rotatable=0;part=1;html=1;labelBackgroundColor=none;fontColor=#1A1A1A;" vertex="1" parent="QgSV-xS3C_OP-8Rsa7VE-23">
          <mxGeometry y="50" width="210" height="100" as="geometry" />
        </mxCell>
        <mxCell id="QgSV-xS3C_OP-8Rsa7VE-25" value="Narrators" style="swimlane;childLayout=stackLayout;horizontal=1;startSize=50;horizontalStack=0;rounded=1;fontSize=14;fontStyle=0;strokeWidth=2;resizeParent=0;resizeLast=1;shadow=0;dashed=0;align=center;arcSize=4;whiteSpace=wrap;html=1;labelBackgroundColor=none;fillColor=#FAD9D5;strokeColor=#D0CEE2;fontColor=#1A1A1A;" vertex="1" parent="1">
          <mxGeometry x="630" y="555" width="160" height="120" as="geometry" />
        </mxCell>
        <mxCell id="QgSV-xS3C_OP-8Rsa7VE-26" value="&lt;div&gt;narrator_id: INT (PK)&lt;/div&gt;&lt;div&gt;first_name: VARCHAR(50)&lt;/div&gt;&lt;div&gt;last_name: VARCHAR(50)&lt;/div&gt;&lt;div&gt;biography: TEXT&lt;/div&gt;" style="align=left;strokeColor=none;fillColor=none;spacingLeft=4;fontSize=12;verticalAlign=top;resizable=0;rotatable=0;part=1;html=1;labelBackgroundColor=none;fontColor=#1A1A1A;" vertex="1" parent="QgSV-xS3C_OP-8Rsa7VE-25">
          <mxGeometry y="50" width="160" height="70" as="geometry" />
        </mxCell>
        <mxCell id="QgSV-xS3C_OP-8Rsa7VE-27" value="Reviews" style="swimlane;childLayout=stackLayout;horizontal=1;startSize=50;horizontalStack=0;rounded=1;fontSize=14;fontStyle=0;strokeWidth=2;resizeParent=0;resizeLast=1;shadow=0;dashed=0;align=center;arcSize=4;whiteSpace=wrap;html=1;labelBackgroundColor=none;fillColor=#FAD9D5;strokeColor=#D0CEE2;fontColor=#1A1A1A;" vertex="1" parent="1">
          <mxGeometry x="230" y="360" width="195" height="150" as="geometry" />
        </mxCell>
        <mxCell id="QgSV-xS3C_OP-8Rsa7VE-28" value="&lt;div&gt;review_id: INT (PK)&lt;/div&gt;&lt;div&gt;user_id: INT (FK)&lt;/div&gt;&lt;div&gt;book_id: INT (FK)&lt;/div&gt;&lt;div&gt;rating: INT&lt;/div&gt;&lt;div&gt;comment: TEXT&lt;/div&gt;&lt;div&gt;created_at: DATETIME&lt;/div&gt;" style="align=left;strokeColor=none;fillColor=none;spacingLeft=4;fontSize=12;verticalAlign=top;resizable=0;rotatable=0;part=1;html=1;labelBackgroundColor=none;fontColor=#1A1A1A;" vertex="1" parent="QgSV-xS3C_OP-8Rsa7VE-27">
          <mxGeometry y="50" width="195" height="100" as="geometry" />
        </mxCell>
        <mxCell id="QgSV-xS3C_OP-8Rsa7VE-29" value="Subscriptions" style="swimlane;childLayout=stackLayout;horizontal=1;startSize=50;horizontalStack=0;rounded=1;fontSize=14;fontStyle=0;strokeWidth=2;resizeParent=0;resizeLast=1;shadow=0;dashed=0;align=center;arcSize=4;whiteSpace=wrap;html=1;labelBackgroundColor=none;fillColor=#FAD9D5;strokeColor=#D0CEE2;fontColor=#1A1A1A;" vertex="1" parent="1">
          <mxGeometry x="440" y="95" width="210" height="150" as="geometry" />
        </mxCell>
        <mxCell id="QgSV-xS3C_OP-8Rsa7VE-30" value="&lt;div&gt;subscription_id: INT (PK)&lt;/div&gt;&lt;div&gt;user_id: INT (FK)&lt;/div&gt;&lt;div&gt;plan_id: INT (FK)&lt;/div&gt;&lt;div&gt;start_date: DATE&lt;/div&gt;&lt;div&gt;end_date: DATE&lt;/div&gt;&lt;div&gt;status: VARCHAR(20)&lt;/div&gt;" style="align=left;strokeColor=none;fillColor=none;spacingLeft=4;fontSize=12;verticalAlign=top;resizable=0;rotatable=0;part=1;html=1;labelBackgroundColor=none;fontColor=#1A1A1A;" vertex="1" parent="QgSV-xS3C_OP-8Rsa7VE-29">
          <mxGeometry y="50" width="210" height="100" as="geometry" />
        </mxCell>
        <mxCell id="QgSV-xS3C_OP-8Rsa7VE-32" value="Plans" style="swimlane;childLayout=stackLayout;horizontal=1;startSize=50;horizontalStack=0;rounded=1;fontSize=14;fontStyle=0;strokeWidth=2;resizeParent=0;resizeLast=1;shadow=0;dashed=0;align=center;arcSize=4;whiteSpace=wrap;html=1;labelBackgroundColor=none;fillColor=#FAD9D5;strokeColor=#D0CEE2;fontColor=#1A1A1A;" vertex="1" parent="1">
          <mxGeometry x="210" y="-80" width="185" height="130" as="geometry" />
        </mxCell>
        <mxCell id="QgSV-xS3C_OP-8Rsa7VE-33" value="&lt;div&gt;plan_id: INT (PK)&lt;/div&gt;&lt;div&gt;name: VARCHAR(50)&lt;/div&gt;&lt;div&gt;price: DECIMAL(10,2)&lt;/div&gt;&lt;div&gt;duration_days: INT&lt;/div&gt;&lt;div&gt;features: TEXT&lt;/div&gt;" style="align=left;strokeColor=none;fillColor=none;spacingLeft=4;fontSize=12;verticalAlign=top;resizable=0;rotatable=0;part=1;html=1;labelBackgroundColor=none;fontColor=#1A1A1A;" vertex="1" parent="QgSV-xS3C_OP-8Rsa7VE-32">
          <mxGeometry y="50" width="185" height="80" as="geometry" />
        </mxCell>
        <mxCell id="QgSV-xS3C_OP-8Rsa7VE-35" value="" style="edgeStyle=entityRelationEdgeStyle;fontSize=12;html=1;endArrow=ERoneToMany;rounded=0;exitX=1;exitY=0.5;exitDx=0;exitDy=0;entryX=0;entryY=0.5;entryDx=0;entryDy=0;labelBackgroundColor=none;strokeColor=#09555B;fontColor=default;" edge="1" parent="1" source="QgSV-xS3C_OP-8Rsa7VE-5" target="QgSV-xS3C_OP-8Rsa7VE-30">
          <mxGeometry width="100" height="100" relative="1" as="geometry">
            <mxPoint x="360" y="400" as="sourcePoint" />
            <mxPoint x="460" y="300" as="targetPoint" />
          </mxGeometry>
        </mxCell>
        <mxCell id="QgSV-xS3C_OP-8Rsa7VE-37" value="" style="edgeStyle=entityRelationEdgeStyle;fontSize=12;html=1;endArrow=ERoneToMany;rounded=0;exitX=0.5;exitY=1;exitDx=0;exitDy=0;labelBackgroundColor=none;strokeColor=#09555B;fontColor=default;" edge="1" parent="1" source="QgSV-xS3C_OP-8Rsa7VE-5" target="QgSV-xS3C_OP-8Rsa7VE-27">
          <mxGeometry width="100" height="100" relative="1" as="geometry">
            <mxPoint x="360" y="400" as="sourcePoint" />
            <mxPoint x="460" y="300" as="targetPoint" />
          </mxGeometry>
        </mxCell>
        <mxCell id="QgSV-xS3C_OP-8Rsa7VE-41" value="" style="edgeStyle=entityRelationEdgeStyle;fontSize=12;html=1;endArrow=ERoneToMany;rounded=0;entryX=1.019;entryY=0.373;entryDx=0;entryDy=0;entryPerimeter=0;exitX=0;exitY=0.5;exitDx=0;exitDy=0;labelBackgroundColor=none;strokeColor=#09555B;fontColor=default;" edge="1" parent="1" source="QgSV-xS3C_OP-8Rsa7VE-10" target="QgSV-xS3C_OP-8Rsa7VE-28">
          <mxGeometry width="100" height="100" relative="1" as="geometry">
            <mxPoint x="550" y="450" as="sourcePoint" />
            <mxPoint x="460" y="300" as="targetPoint" />
            <Array as="points">
              <mxPoint x="640" y="450" />
              <mxPoint x="610" y="447" />
            </Array>
          </mxGeometry>
        </mxCell>
        <mxCell id="QgSV-xS3C_OP-8Rsa7VE-42" value="" style="edgeStyle=entityRelationEdgeStyle;fontSize=12;html=1;endArrow=ERoneToMany;rounded=0;entryX=0.605;entryY=1.024;entryDx=0;entryDy=0;entryPerimeter=0;exitX=1;exitY=0.5;exitDx=0;exitDy=0;labelBackgroundColor=none;strokeColor=#09555B;fontColor=default;" edge="1" parent="1" source="QgSV-xS3C_OP-8Rsa7VE-12">
          <mxGeometry width="100" height="100" relative="1" as="geometry">
            <mxPoint x="531.9800000000001" y="595" as="sourcePoint" />
            <mxPoint x="570.0000000000001" y="484.0699999999999" as="targetPoint" />
          </mxGeometry>
        </mxCell>
        <mxCell id="QgSV-xS3C_OP-8Rsa7VE-45" value="" style="edgeStyle=entityRelationEdgeStyle;fontSize=12;html=1;endArrow=ERmany;startArrow=ERmany;rounded=0;entryX=0;entryY=0.25;entryDx=0;entryDy=0;labelBackgroundColor=none;strokeColor=#09555B;fontColor=default;" edge="1" parent="1">
          <mxGeometry width="100" height="100" relative="1" as="geometry">
            <mxPoint x="850" y="445" as="sourcePoint" />
            <mxPoint x="730" y="180" as="targetPoint" />
            <Array as="points">
              <mxPoint x="450" y="335" />
              <mxPoint x="870" y="295" />
              <mxPoint x="900" y="295" />
              <mxPoint x="800" y="175" />
            </Array>
          </mxGeometry>
        </mxCell>
        <mxCell id="QgSV-xS3C_OP-8Rsa7VE-48" value="" style="edgeStyle=entityRelationEdgeStyle;fontSize=12;html=1;endArrow=ERoneToMany;rounded=0;exitX=1;exitY=0.852;exitDx=0;exitDy=0;exitPerimeter=0;entryX=0;entryY=0.5;entryDx=0;entryDy=0;labelBackgroundColor=none;strokeColor=#09555B;fontColor=default;" edge="1" parent="1" source="QgSV-xS3C_OP-8Rsa7VE-10" target="QgSV-xS3C_OP-8Rsa7VE-24">
          <mxGeometry width="100" height="100" relative="1" as="geometry">
            <mxPoint x="360" y="400" as="sourcePoint" />
            <mxPoint x="460" y="300" as="targetPoint" />
            <Array as="points">
              <mxPoint x="940" y="540" />
            </Array>
          </mxGeometry>
        </mxCell>
        <mxCell id="QgSV-xS3C_OP-8Rsa7VE-50" value="" style="edgeStyle=entityRelationEdgeStyle;fontSize=12;html=1;endArrow=ERoneToMany;rounded=0;entryX=0;entryY=0.75;entryDx=0;entryDy=0;labelBackgroundColor=none;strokeColor=#09555B;fontColor=default;" edge="1" parent="1" source="QgSV-xS3C_OP-8Rsa7VE-26" target="QgSV-xS3C_OP-8Rsa7VE-24">
          <mxGeometry width="100" height="100" relative="1" as="geometry">
            <mxPoint x="360" y="570" as="sourcePoint" />
            <mxPoint x="460" y="470" as="targetPoint" />
          </mxGeometry>
        </mxCell>
        <mxCell id="QgSV-xS3C_OP-8Rsa7VE-56" value="" style="edgeStyle=entityRelationEdgeStyle;fontSize=12;html=1;endArrow=ERmany;rounded=0;exitX=1;exitY=0.75;exitDx=0;exitDy=0;entryX=0;entryY=0.25;entryDx=0;entryDy=0;labelBackgroundColor=none;strokeColor=#09555B;fontColor=default;" edge="1" parent="1" source="QgSV-xS3C_OP-8Rsa7VE-33" target="QgSV-xS3C_OP-8Rsa7VE-30">
          <mxGeometry width="100" height="100" relative="1" as="geometry">
            <mxPoint x="360" y="230" as="sourcePoint" />
            <mxPoint x="460" y="130" as="targetPoint" />
          </mxGeometry>
        </mxCell>
        <mxCell id="QgSV-xS3C_OP-8Rsa7VE-58" value="receives" style="text;html=1;align=center;verticalAlign=middle;whiteSpace=wrap;rounded=0;labelBackgroundColor=none;fontColor=#1A1A1A;" vertex="1" parent="1">
          <mxGeometry x="480" y="415" width="60" height="30" as="geometry" />
        </mxCell>
        <mxCell id="QgSV-xS3C_OP-8Rsa7VE-59" value="writes&lt;div&gt;&lt;br&gt;&lt;/div&gt;" style="text;html=1;align=center;verticalAlign=middle;whiteSpace=wrap;rounded=0;labelBackgroundColor=none;fontColor=#1A1A1A;" vertex="1" parent="1">
          <mxGeometry x="135" y="330" width="60" height="30" as="geometry" />
        </mxCell>
        <mxCell id="QgSV-xS3C_OP-8Rsa7VE-60" value="of type" style="text;html=1;align=center;verticalAlign=middle;whiteSpace=wrap;rounded=0;labelBackgroundColor=none;fontColor=#1A1A1A;" vertex="1" parent="1">
          <mxGeometry x="425" y="50" width="60" height="30" as="geometry" />
        </mxCell>
        <mxCell id="QgSV-xS3C_OP-8Rsa7VE-62" value="has" style="text;html=1;align=center;verticalAlign=middle;whiteSpace=wrap;rounded=0;fontColor=#1A1A1A;" vertex="1" parent="1">
          <mxGeometry x="320" y="160" width="60" height="30" as="geometry" />
        </mxCell>
        <mxCell id="QgSV-xS3C_OP-8Rsa7VE-64" value="has version" style="text;html=1;align=center;verticalAlign=middle;whiteSpace=wrap;rounded=0;fontColor=#1A1A1A;" vertex="1" parent="1">
          <mxGeometry x="870" y="470" width="60" height="30" as="geometry" />
        </mxCell>
        <mxCell id="QgSV-xS3C_OP-8Rsa7VE-65" value="has" style="text;html=1;align=center;verticalAlign=middle;whiteSpace=wrap;rounded=0;fontColor=#1A1A1A;" vertex="1" parent="1">
          <mxGeometry x="810" y="280" width="60" height="30" as="geometry" />
        </mxCell>
        <mxCell id="QgSV-xS3C_OP-8Rsa7VE-66" value="belongs to" style="text;html=1;align=center;verticalAlign=middle;whiteSpace=wrap;rounded=0;fontColor=#1A1A1A;" vertex="1" parent="1">
          <mxGeometry x="950" y="160" width="60" height="30" as="geometry" />
        </mxCell>
        <mxCell id="QgSV-xS3C_OP-8Rsa7VE-67" value="narrated by" style="text;html=1;align=center;verticalAlign=middle;whiteSpace=wrap;rounded=0;fontColor=#1A1A1A;" vertex="1" parent="1">
          <mxGeometry x="860" y="610" width="60" height="30" as="geometry" />
        </mxCell>
        <mxCell id="QgSV-xS3C_OP-8Rsa7VE-68" value="written by" style="text;html=1;align=center;verticalAlign=middle;whiteSpace=wrap;rounded=0;fontColor=#1A1A1A;" vertex="1" parent="1">
          <mxGeometry x="470" y="520" width="60" height="30" as="geometry" />
        </mxCell>
      </root>
    </mxGraphModel>
  </diagram>
</mxfile>
